<svg width="24" height="24" viewBox="0 0 24 24" fill="none" xmlns="http://www.w3.org/2000/svg">
<path d="M9.41378 15.1598L10.8511 14.6698C11.0689 15.4393 11.5226 15.824 12.2122 15.824C12.5824 15.824 12.8801 15.7115 13.1051 15.4864C13.3374 15.2614 13.4536 14.9529 13.4536 14.5609C13.4536 14.1834 13.3374 13.8785 13.1051 13.6462C12.8728 13.4067 12.5752 13.2869 12.2122 13.2869C11.6823 13.2869 11.3012 13.5047 11.0689 13.9402L9.56622 13.6244L10.2087 9.37778H14.7929V10.7498H11.3193L11.1233 12.0564L11.0253 12.6771C11.4101 12.3432 11.9327 12.1762 12.5933 12.1762C13.312 12.1762 13.9036 12.3904 14.3682 12.8187C14.8328 13.247 15.0651 13.8422 15.0651 14.6044C15.0651 15.3812 14.8147 16.0055 14.3138 16.4773C13.8129 16.9419 13.1341 17.1742 12.2776 17.1742C11.5299 17.1742 10.8983 16.9891 10.3829 16.6189C9.86748 16.2487 9.54444 15.7623 9.41378 15.1598Z" fill="#80808D"/>
<path d="M10.02 4.46997L12 2" stroke="#01001A" stroke-width="1.5" stroke-linecap="round" stroke-linejoin="round"/>
<path d="M4.91 7.79974C3.8 9.27974 3.10999 11.1097 3.10999 13.1097C3.10999 18.0197 7.09 21.9998 12 21.9998C16.91 21.9998 20.89 18.0197 20.89 13.1097C20.89 8.19974 16.91 4.21973 12 4.21973C11.32 4.21973 10.66 4.30978 10.02 4.45978" stroke="#01001A" stroke-width="1.5" stroke-linecap="round" stroke-linejoin="round"/>
</svg>
