<svg width="24" height="24" viewBox="0 0 24 24" fill="none" xmlns="http://www.w3.org/2000/svg">
<g id="vuesax/twotone/people">
<g id="people">
<path id="Vector" opacity="0.4" d="M17.9976 7.16C17.9376 7.15 17.8676 7.15 17.8076 7.16C16.4276 7.11 15.3276 5.98 15.3276 4.58C15.3276 3.15 16.4776 2 17.9076 2C19.3376 2 20.4876 3.16 20.4876 4.58C20.4776 5.98 19.3776 7.11 17.9976 7.16Z" stroke="#AAAAB3" stroke-width="1.5" stroke-linecap="round" stroke-linejoin="round"/>
<path id="Vector_2" opacity="0.4" d="M16.9675 14.4402C18.3375 14.6702 19.8475 14.4302 20.9075 13.7202C22.3175 12.7802 22.3175 11.2402 20.9075 10.3002C19.8375 9.59016 18.3075 9.35016 16.9375 9.59016" stroke="#AAAAB3" stroke-width="1.5" stroke-linecap="round" stroke-linejoin="round"/>
<path id="Vector_3" opacity="0.4" d="M5.9675 7.16C6.0275 7.15 6.0975 7.15 6.1575 7.16C7.5375 7.11 8.6375 5.98 8.6375 4.58C8.6375 3.15 7.4875 2 6.0575 2C4.6275 2 3.4775 3.16 3.4775 4.58C3.4875 5.98 4.5875 7.11 5.9675 7.16Z" stroke="#AAAAB3" stroke-width="1.5" stroke-linecap="round" stroke-linejoin="round"/>
<path id="Vector_4" opacity="0.4" d="M6.9975 14.4402C5.6275 14.6702 4.1175 14.4302 3.0575 13.7202C1.6475 12.7802 1.6475 11.2402 3.0575 10.3002C4.1275 9.59016 5.6575 9.35016 7.0275 9.59016" stroke="#AAAAB3" stroke-width="1.5" stroke-linecap="round" stroke-linejoin="round"/>
<g id="Group">
<path id="Vector_5" d="M12 14.6302C11.94 14.6202 11.87 14.6202 11.81 14.6302C10.43 14.5802 9.33 13.4502 9.33 12.0502C9.33 10.6202 10.48 9.47021 11.91 9.47021C13.34 9.47021 14.49 10.6302 14.49 12.0502C14.48 13.4502 13.38 14.5902 12 14.6302Z" stroke="#AAAAB3" stroke-width="1.5" stroke-linecap="round" stroke-linejoin="round"/>
<path id="Vector_6" d="M9.09 17.7804C7.68 18.7204 7.68 20.2603 9.09 21.2003C10.69 22.2703 13.31 22.2703 14.91 21.2003C16.32 20.2603 16.32 18.7204 14.91 17.7804C13.32 16.7204 10.69 16.7204 9.09 17.7804Z" stroke="#AAAAB3" stroke-width="1.5" stroke-linecap="round" stroke-linejoin="round"/>
</g>
</g>
</g>
</svg>
