<svg width="93" height="92" viewBox="0 0 93 92" fill="none" xmlns="http://www.w3.org/2000/svg">
<g id="undraw_no_data_re_kwbl (2) 1" clip-path="url(#clip0_554_7469)">
<path id="Vector" d="M59.0402 21.1136H33.9807C33.4097 21.1143 32.8622 21.3414 32.4584 21.7452C32.0546 22.149 31.8274 22.6965 31.8267 23.2675V78.9625L31.5396 79.0501L25.3921 80.9327C25.1007 81.0215 24.786 80.9911 24.5171 80.8481C24.2481 80.7052 24.0469 80.4613 23.9575 80.1701L5.67159 20.4401C5.5826 20.1487 5.61293 19.834 5.75591 19.565C5.89889 19.296 6.14283 19.0947 6.43411 19.0055L15.9074 16.1048L43.3707 7.69853L52.8439 4.79783C52.9881 4.75346 53.1396 4.73795 53.2897 4.7522C53.4399 4.76645 53.5858 4.81017 53.719 4.88086C53.8523 4.95155 53.9703 5.04782 54.0663 5.16417C54.1623 5.28052 54.2344 5.41465 54.2785 5.5589L58.9526 20.8264L59.0402 21.1136Z" fill="#F2F2F2"/>
<path id="Vector_2" d="M64.5086 20.8259L58.8752 2.42512C58.7815 2.11853 58.6283 1.83341 58.4243 1.58606C58.2204 1.3387 57.9697 1.13397 57.6866 0.98354C57.4034 0.833114 57.0935 0.739947 56.7743 0.709368C56.4552 0.678789 56.1332 0.711396 55.8266 0.805323L42.5078 4.8821L15.0459 13.2898L1.72713 17.368C1.10841 17.558 0.590342 17.9858 0.28665 18.5573C-0.0170418 19.1289 -0.0815502 19.7976 0.107287 20.4167L19.3611 83.303C19.5145 83.8028 19.824 84.2402 20.2442 84.5511C20.6645 84.862 21.1733 85.03 21.696 85.0305C21.938 85.0306 22.1785 84.9943 22.4097 84.9228L31.5397 82.1284L31.8269 82.0394V81.7392L31.5397 81.8268L22.325 84.6486C21.7788 84.815 21.189 84.7581 20.6848 84.4902C20.1805 84.2224 19.8031 83.7655 19.6354 83.2197L0.383057 20.3319C0.299925 20.0615 0.270952 19.7774 0.297795 19.4958C0.324637 19.2141 0.406765 18.9406 0.539483 18.6907C0.6722 18.4409 0.852899 18.2197 1.07123 18.0398C1.28955 17.8599 1.54122 17.7248 1.81183 17.6423L15.1306 13.5641L42.5926 5.15781L55.9114 1.0796C56.1166 1.01696 56.33 0.985024 56.5446 0.984824C57.0052 0.985858 57.4533 1.13433 57.8233 1.4085C58.1934 1.68267 58.4659 2.06813 58.601 2.50841L64.2085 20.8259L64.2976 21.1131H64.5963L64.5086 20.8259Z" fill="#C9C9C9"/>
<path id="Vector_3" d="M17.6168 19.0523C17.3401 19.0521 17.0706 18.9633 16.8481 18.7987C16.6255 18.6342 16.4616 18.4026 16.3803 18.1381L14.5307 12.0966C14.4809 11.9343 14.4637 11.7638 14.4799 11.5949C14.4961 11.4259 14.5454 11.2618 14.625 11.112C14.7047 10.9621 14.813 10.8293 14.944 10.7213C15.0749 10.6133 15.2258 10.5322 15.3881 10.4825L40.6528 2.74773C40.9805 2.64772 41.3346 2.68183 41.6372 2.84258C41.9398 3.00332 42.1663 3.27757 42.267 3.60512L44.1166 9.64666C44.2165 9.97441 44.1824 10.3284 44.0216 10.631C43.8609 10.9336 43.5867 11.1601 43.2592 11.2608L17.9944 18.9956C17.8721 19.0332 17.7448 19.0523 17.6168 19.0523Z" fill="#04A7EC"/>
<path id="Vector_4" d="M27.3058 7.15314C28.892 7.15314 30.1778 5.86731 30.1778 4.28116C30.1778 2.69501 28.892 1.40918 27.3058 1.40918C25.7197 1.40918 24.4338 2.69501 24.4338 4.28116C24.4338 5.86731 25.7197 7.15314 27.3058 7.15314Z" fill="#04A7EC"/>
<path id="Vector_5" d="M27.3058 6.09917C28.3102 6.09917 29.1244 5.28494 29.1244 4.28054C29.1244 3.27614 28.3102 2.46191 27.3058 2.46191C26.3014 2.46191 25.4872 3.27614 25.4872 4.28054C25.4872 5.28494 26.3014 6.09917 27.3058 6.09917Z" fill="white"/>
<path id="Vector_6" d="M86.538 84.2971H38.0015C37.6779 84.2967 37.3676 84.168 37.1388 83.9392C36.91 83.7103 36.7813 83.4001 36.7809 83.0765V24.9188C36.7812 24.5952 36.91 24.285 37.1388 24.0561C37.3676 23.8273 37.6779 23.6986 38.0015 23.6982H86.538C86.8616 23.6986 87.1718 23.8273 87.4007 24.0562C87.6295 24.285 87.7582 24.5952 87.7586 24.9188V83.0765C87.7582 83.4001 87.6295 83.7103 87.4007 83.9391C87.1718 84.168 86.8616 84.2967 86.538 84.2971Z" fill="#F3F3F3"/>
<path id="Vector_7" d="M64.2084 20.8262H33.9807C33.3336 20.8271 32.7132 21.0846 32.2556 21.5422C31.798 21.9998 31.5405 22.6202 31.5396 23.2674V81.8271L31.8267 81.7395V23.2674C31.8274 22.6963 32.0546 22.1488 32.4584 21.745C32.8622 21.3412 33.4097 21.1141 33.9807 21.1134H64.2974L64.2084 20.8262ZM90.5588 20.8262H33.9807C33.3336 20.8271 32.7132 21.0846 32.2556 21.5422C31.798 21.9998 31.5405 22.6202 31.5396 23.2674V89.0358C31.5405 89.6829 31.798 90.3033 32.2556 90.7609C32.7132 91.2185 33.3336 91.476 33.9807 91.4769H90.5588C91.206 91.476 91.8264 91.2185 92.284 90.7609C92.7416 90.3033 92.9991 89.6829 93 89.0358V23.2674C92.9991 22.6202 92.7416 21.9998 92.284 21.5422C91.8264 21.0846 91.206 20.8271 90.5588 20.8262ZM92.7128 89.0358C92.7121 89.6068 92.4849 90.1543 92.0811 90.5581C91.6773 90.9619 91.1299 91.1891 90.5588 91.1898H33.9807C33.4097 91.1891 32.8622 90.9619 32.4584 90.5581C32.0546 90.1543 31.8274 89.6068 31.8267 89.0358V23.2674C31.8274 22.6963 32.0546 22.1488 32.4584 21.745C32.8622 21.3412 33.4097 21.1141 33.9807 21.1134H90.5588C91.1299 21.1141 91.6773 21.3412 92.0811 21.745C92.4849 22.1488 92.7121 22.6963 92.7128 23.2674V89.0358Z" fill="#C9C9C9"/>
<path id="Vector_8" d="M75.481 27.1444H49.0587C48.7161 27.144 48.3876 27.0077 48.1453 26.7654C47.903 26.5231 47.7667 26.1946 47.7664 25.852V19.5336C47.7667 19.191 47.903 18.8625 48.1453 18.6202C48.3876 18.3779 48.7161 18.2416 49.0587 18.2412H75.481C75.8236 18.2416 76.1521 18.3779 76.3944 18.6202C76.6367 18.8625 76.773 19.191 76.7734 19.5336V25.852C76.773 26.1946 76.6367 26.5231 76.3944 26.7654C76.1521 27.0077 75.8236 27.144 75.481 27.1444Z" fill="#04A7EC"/>
<path id="Vector_9" d="M62.2698 18.6727C63.856 18.6727 65.1418 17.3868 65.1418 15.8007C65.1418 14.2145 63.856 12.9287 62.2698 12.9287C60.6837 12.9287 59.3978 14.2145 59.3978 15.8007C59.3978 17.3868 60.6837 18.6727 62.2698 18.6727Z" fill="#04A7EC"/>
<path id="Vector_10" d="M62.2698 17.5494C63.2359 17.5494 64.0191 16.7662 64.0191 15.8001C64.0191 14.834 63.2359 14.0508 62.2698 14.0508C61.3037 14.0508 60.5205 14.834 60.5205 15.8001C60.5205 16.7662 61.3037 17.5494 62.2698 17.5494Z" fill="white"/>
</g>
<defs>
<clipPath id="clip0_554_7469">
<rect width="93" height="90.7796" fill="white" transform="translate(0 0.697266)"/>
</clipPath>
</defs>
</svg>
