<svg width="85" height="97" viewBox="0 0 85 97" fill="none" xmlns="http://www.w3.org/2000/svg">
<g id="undraw_editable_re_4l94 1" clip-path="url(#clip0_554_7425)">
<path id="Vector" d="M72.9576 92.4586C73.3934 92.4859 73.6342 91.9445 73.3045 91.629L73.2717 91.4986C73.276 91.4881 73.2804 91.4777 73.2848 91.4673C73.7254 90.4165 75.2189 90.4238 75.6559 91.4761C76.0437 92.4101 76.5374 93.3457 76.659 94.3333C76.7135 94.7692 76.689 95.2134 76.5922 95.6411C77.5009 93.6562 77.9791 91.4887 77.9791 89.309C77.9791 88.7613 77.9491 88.2136 77.8878 87.6673C77.8374 87.2205 77.7679 86.7764 77.678 86.3363C77.1917 83.9577 76.1386 81.6921 74.6196 79.7998C73.8893 79.4006 73.2804 78.7767 72.9125 78.0287C72.7804 77.759 72.6769 77.4688 72.6278 77.1732C72.7109 77.1841 72.9412 75.9185 72.8785 75.8408C72.9943 75.6651 73.2016 75.5777 73.3281 75.4062C73.9571 74.5534 74.8238 74.7023 75.2762 75.8613C76.2427 76.3491 76.2521 77.158 75.659 77.9361C75.2817 78.4311 75.2299 79.1009 74.8988 79.6308C74.9329 79.6744 74.9683 79.7167 75.0024 79.7603C75.6269 80.5614 76.1671 81.4224 76.6225 82.327C76.4938 81.3216 76.6838 80.1105 77.0078 79.3298C77.3765 78.4402 78.0676 77.6911 78.6763 76.9221C79.4074 75.9984 80.9065 76.4015 81.0353 77.5724C81.0365 77.5837 81.0377 77.5951 81.0389 77.6064C80.9485 77.6574 80.86 77.7116 80.7734 77.7688C80.28 78.0952 80.4505 78.8601 81.0352 78.9504L81.0485 78.9524C81.0158 79.278 80.9599 79.6009 80.8782 79.9183C81.659 82.9379 79.9733 84.0377 77.5663 84.0871C77.5132 84.1143 77.4614 84.1416 77.4083 84.1675C77.6521 84.8541 77.847 85.5584 77.9914 86.2723C78.1208 86.903 78.2107 87.5406 78.2611 88.1809C78.3238 88.9888 78.3183 89.8008 78.2502 90.6073L78.2543 90.5787C78.4273 89.6904 78.9096 88.8607 79.6098 88.2858C80.653 87.4289 82.1268 87.1134 83.2522 86.4246C83.7939 86.093 84.4881 86.5215 84.3935 87.1495L84.3889 87.1796C84.2214 87.2477 84.0579 87.3268 83.8999 87.4153C83.8095 87.4663 83.7209 87.5205 83.6344 87.5777C83.1409 87.9041 83.3115 88.669 83.8961 88.7593L83.9094 88.7613C83.9189 88.7627 83.9271 88.764 83.9366 88.7654C83.6492 89.4479 83.2487 90.0814 82.7473 90.6277C82.2591 93.2637 80.1622 93.5138 77.9192 92.7462H77.9178C77.6726 93.8142 77.3143 94.8578 76.8538 95.8523H73.0529C73.0392 95.8101 73.027 95.7665 73.0147 95.7242C73.3662 95.746 73.7204 95.7256 74.0664 95.6616C73.7844 95.3155 73.5024 94.9668 73.2204 94.6207C73.2136 94.6139 73.2082 94.6071 73.2027 94.6003C73.0597 94.4232 72.9153 94.2475 72.7722 94.0704L72.7721 94.0701C72.7632 93.5265 72.8285 92.9845 72.9576 92.4586Z" fill="#F2F2F2"/>
<path id="Vector_2" d="M37.6167 96.1787C37.6167 96.3179 37.7285 96.4297 37.8677 96.4297H83.9108C84.05 96.4297 84.1618 96.3179 84.1618 96.1787C84.1618 96.0395 84.05 95.9277 83.9108 95.9277H37.8677C37.7285 95.9277 37.6167 96.0395 37.6167 96.1787Z" fill="#CCCCCC"/>
<g id="Group">
<path id="Vector_3" d="M45.9638 96.4296H8.75116C4.21373 96.4296 0.522217 92.738 0.522217 88.2005V8.22797C0.522215 3.69054 4.21373 -0.000976562 8.75116 -0.000976562H45.9638C50.5012 -0.000976562 54.1927 3.69054 54.1927 8.22797V88.2005C54.1927 92.738 50.5012 96.4296 45.9638 96.4296Z" fill="#3F3D56"/>
<path id="Vector_4" d="M54.1926 29.415C54.0006 29.415 53.8445 29.5712 53.8445 29.7632V40.9031C53.8445 41.0951 54.0006 41.2513 54.1926 41.2513C54.3846 41.2513 54.5407 41.0951 54.5407 40.9031V29.7632C54.5407 29.5712 54.3846 29.415 54.1926 29.415Z" fill="#3F3D56"/>
<path id="Vector_5" d="M53.4094 8.22762V88.1988C53.4094 92.1482 50.3355 95.3788 46.4487 95.6295H46.4469C46.3895 95.633 46.3321 95.6364 46.2729 95.6382C46.1702 95.6434 46.0675 95.6451 45.9631 95.6451C45.9631 95.6451 45.5801 95.6173 44.8804 95.5651C44.1737 95.5129 43.145 95.4345 41.8621 95.3318C41.4775 95.3022 41.0719 95.2692 40.6437 95.2344C39.7908 95.1647 38.8544 95.0881 37.85 95.0011C37.4497 94.968 37.0354 94.9315 36.6124 94.8949C34.4506 94.7087 32.0294 94.4911 29.4759 94.2439C29.0442 94.2039 28.6091 94.1621 28.1704 94.1186C28.0555 94.1064 27.9389 94.096 27.8223 94.0838C26.0016 93.9045 1.30554 89.1317 1.30554 88.1988V8.22762C1.30554 4.11454 4.63884 0.78125 8.75192 0.78125H13.1975C13.9076 0.78125 14.4786 1.33477 14.5395 2.0432C14.5447 2.0902 14.5499 2.13719 14.5586 2.18419C14.6874 2.89611 15.3402 3.39218 16.0643 3.39218H38.6507C39.3748 3.39218 40.0275 2.89611 40.1563 2.18419C40.165 2.13719 40.1703 2.0902 40.1755 2.0432C40.2364 1.33477 40.8073 0.78125 41.5175 0.78125H45.9631C50.0761 0.78125 53.4094 4.11454 53.4094 8.22762Z" fill="white"/>
<path id="Vector_6" d="M0.348124 21.0605C0.156128 21.0605 0 21.2167 0 21.4087V24.1937C0 24.3857 0.15613 24.5418 0.348124 24.5418C0.540117 24.5418 0.696247 24.3857 0.696247 24.1937V21.4087C0.696247 21.2167 0.540117 21.0605 0.348124 21.0605Z" fill="#3F3D56"/>
<path id="Vector_7" d="M0.348124 29.415C0.156128 29.415 0 29.5712 0 29.7632V35.1591C0 35.3511 0.15613 35.5072 0.348124 35.5072C0.540117 35.5072 0.696247 35.3511 0.696247 35.1591V29.7632C0.696247 29.5712 0.540117 29.415 0.348124 29.415Z" fill="#3F3D56"/>
<path id="Vector_8" d="M0.348124 37.0742C0.156128 37.0742 0 37.2303 0 37.4223V42.8183C0 43.0103 0.15613 43.1664 0.348124 43.1664C0.540117 43.1664 0.696247 43.0103 0.696247 42.8183V37.4223C0.696247 37.2303 0.540117 37.0742 0.348124 37.0742Z" fill="#3F3D56"/>
<path id="Vector_9" d="M13.0763 2H6.4187C6.38257 2 6.35327 2.02929 6.35327 2.06543V2.80488C6.35327 2.84102 6.38257 2.87031 6.4187 2.87031H13.0763C13.1124 2.87031 13.1417 2.84102 13.1417 2.80488V2.06543C13.1417 2.02929 13.1124 2 13.0763 2Z" fill="#E6E6E6"/>
<path id="Vector_10" d="M42.6175 2.87101C43.002 2.87101 43.3138 2.55929 43.3138 2.17476C43.3138 1.79024 43.002 1.47852 42.6175 1.47852C42.233 1.47852 41.9213 1.79024 41.9213 2.17476C41.9213 2.55929 42.233 2.87101 42.6175 2.87101Z" fill="#E6E6E6"/>
<path id="Vector_11" d="M44.5322 2.87101C44.9167 2.87101 45.2284 2.55929 45.2284 2.17476C45.2284 1.79024 44.9167 1.47852 44.5322 1.47852C44.1477 1.47852 43.8359 1.79024 43.8359 2.17476C43.8359 2.55929 44.1477 2.87101 44.5322 2.87101Z" fill="#E6E6E6"/>
<path id="Vector_12" d="M46.4469 2.87101C46.8314 2.87101 47.1431 2.55929 47.1431 2.17476C47.1431 1.79024 46.8314 1.47852 46.4469 1.47852C46.0623 1.47852 45.7506 1.79024 45.7506 2.17476C45.7506 2.55929 46.0623 2.87101 46.4469 2.87101Z" fill="#E6E6E6"/>
</g>
<path id="Vector_13" opacity="0.4" d="M35.6282 54.8806C37.0261 54.8806 38.1593 53.7474 38.1593 52.3495C38.1593 50.9516 37.0261 49.8184 35.6282 49.8184C34.2303 49.8184 33.097 50.9516 33.097 52.3495C33.097 53.7474 34.2303 54.8806 35.6282 54.8806Z" fill="#04A7EC"/>
<path id="Vector_14" d="M41.9482 80.5097H12.4185C11.9533 80.5097 11.5748 80.1312 11.5748 79.666C11.5748 79.2008 11.9533 78.8223 12.4185 78.8223H41.9482C42.4134 78.8223 42.7919 79.2008 42.7919 79.666C42.7919 80.1312 42.4134 80.5097 41.9482 80.5097Z" fill="#E6E6E6"/>
<path id="Vector_15" d="M45.8276 13.5391H8.713C6.50038 13.5391 4.70117 15.3383 4.70117 17.5509V38.0023C4.70117 40.2149 6.50038 42.0141 8.713 42.0141H45.8276C48.0402 42.0141 49.8394 40.2149 49.8394 38.0023V17.5509C49.8394 15.3383 48.0402 13.5391 45.8276 13.5391ZM49.4176 38.0023C49.4176 39.9829 47.8082 41.5923 45.8276 41.5923H8.713C6.7324 41.5923 5.12302 39.9829 5.12302 38.0023V17.5509C5.12302 15.5703 6.73239 13.9609 8.713 13.9609H45.8276C47.8082 13.9609 49.4176 15.5703 49.4176 17.5509V38.0023Z" fill="#E6E6E6"/>
<path id="Vector_16" d="M15.3485 62.1536L13.6125 61.3313C14.3245 62.3249 14.938 63.8768 15.2665 65.1116C15.8226 63.9614 16.7191 62.5539 17.6065 61.7132L15.7718 62.1852C16.9023 56.6446 21.1545 52.667 26.0237 52.667V52.2451C20.9376 52.2451 16.5027 56.3893 15.3485 62.1536Z" fill="#3F3D56"/>
<path id="Vector_17" d="M23.3382 70.5956H12.3701C11.9049 70.5956 11.5264 70.2171 11.5264 69.7519C11.5264 69.2867 11.9049 68.9082 12.3701 68.9082H23.3382C23.8035 68.9082 24.182 69.2867 24.182 69.7519C24.182 70.2171 23.8035 70.5956 23.3382 70.5956Z" fill="#04A7EC"/>
<path id="Vector_18" d="M32.6752 54.8806C34.0731 54.8806 35.2063 53.7474 35.2063 52.3495C35.2063 50.9516 34.0731 49.8184 32.6752 49.8184C31.2773 49.8184 30.144 50.9516 30.144 52.3495C30.144 53.7474 31.2773 54.8806 32.6752 54.8806Z" fill="white"/>
<path id="Vector_19" opacity="0.7" d="M32.6752 54.8806C34.0731 54.8806 35.2063 53.7474 35.2063 52.3495C35.2063 50.9516 34.0731 49.8184 32.6752 49.8184C31.2773 49.8184 30.144 50.9516 30.144 52.3495C30.144 53.7474 31.2773 54.8806 32.6752 54.8806Z" fill="#04A7EC"/>
<path id="Vector_20" d="M18.988 26.405C20.3859 26.405 21.5191 25.2718 21.5191 23.8739C21.5191 22.476 20.3859 21.3428 18.988 21.3428C17.5901 21.3428 16.4569 22.476 16.4569 23.8739C16.4569 25.2718 17.5901 26.405 18.988 26.405Z" fill="#CCCCCC"/>
<path id="Vector_21" opacity="0.7" d="M27.2704 26.405C28.6683 26.405 29.8015 25.2718 29.8015 23.8739C29.8015 22.476 28.6683 21.3428 27.2704 21.3428C25.8725 21.3428 24.7393 22.476 24.7393 23.8739C24.7393 25.2718 25.8725 26.405 27.2704 26.405Z" fill="#CCCCCC"/>
<path id="Vector_22" opacity="0.4" d="M35.5528 26.405C36.9507 26.405 38.084 25.2718 38.084 23.8739C38.084 22.476 36.9507 21.3428 35.5528 21.3428C34.1549 21.3428 33.0217 22.476 33.0217 23.8739C33.0217 25.2718 34.1549 26.405 35.5528 26.405Z" fill="#CCCCCC"/>
<path id="Vector_23" d="M18.988 34.2097C20.3859 34.2097 21.5191 33.0765 21.5191 31.6786C21.5191 30.2807 20.3859 29.1475 18.988 29.1475C17.5901 29.1475 16.4569 30.2807 16.4569 31.6786C16.4569 33.0765 17.5901 34.2097 18.988 34.2097Z" fill="#3F3D56"/>
<path id="Vector_24" opacity="0.7" d="M27.2704 34.2097C28.6683 34.2097 29.8015 33.0765 29.8015 31.6786C29.8015 30.2807 28.6683 29.1475 27.2704 29.1475C25.8725 29.1475 24.7393 30.2807 24.7393 31.6786C24.7393 33.0765 25.8725 34.2097 27.2704 34.2097Z" fill="#3F3D56"/>
<path id="Vector_25" opacity="0.4" d="M35.5528 34.2097C36.9507 34.2097 38.084 33.0765 38.084 31.6786C38.084 30.2807 36.9507 29.1475 35.5528 29.1475C34.1549 29.1475 33.0217 30.2807 33.0217 31.6786C33.0217 33.0765 34.1549 34.2097 35.5528 34.2097Z" fill="#3F3D56"/>
<path id="Vector_26" d="M30.144 54.8806C31.5419 54.8806 32.6751 53.7474 32.6751 52.3495C32.6751 50.9516 31.5419 49.8184 30.144 49.8184C28.7461 49.8184 27.6129 50.9516 27.6129 52.3495C27.6129 53.7474 28.7461 54.8806 30.144 54.8806Z" fill="#04A7EC"/>
<g id="Group_2">
<path id="Vector_27" d="M66.4846 39.7759H60.6953L60.3955 34.7139C60.3955 31.5296 63.2766 31.6878 66.4609 31.6878H66.4846V39.7759Z" fill="#2F2E41"/>
<path id="Vector_28" d="M63.2656 36.886C64.7605 36.886 65.9723 35.6742 65.9723 34.1793C65.9723 32.6845 64.7605 31.4727 63.2656 31.4727C61.7708 31.4727 60.559 32.6845 60.559 34.1793C60.559 35.6742 61.7708 36.886 63.2656 36.886Z" fill="#A0616A"/>
<path id="Vector_29" d="M51.3109 38.5335C51.3888 38.8916 51.3793 39.2376 51.3005 39.523L52.258 42.8871L50.6439 43.296L49.8463 39.8393C49.656 39.6125 49.5037 39.3017 49.4258 38.9437C49.2478 38.1257 49.5255 37.3707 50.0461 37.2575C50.5666 37.1442 51.1329 37.7155 51.3109 38.5335Z" fill="#A0616A"/>
<g id="Group_3">
<path id="Vector_30" d="M63.2837 92.9038L61.9866 92.9344L61.2635 87.1068L63.1778 87.0615L63.2837 92.9038Z" fill="#A0616A"/>
<path id="Vector_31" d="M58.8334 95.6103C58.8334 95.8295 58.9889 96.0071 59.1807 96.0071H61.7554C61.7554 96.0071 62.0088 94.9886 63.0418 94.5503L63.1131 96.0071H64.4413L64.2804 93.6646C64.2804 93.6646 64.6357 92.4114 63.8978 91.7708C63.1599 91.1302 63.7576 91.2193 63.7576 91.2193L63.4673 89.7695L61.4603 90.0056L61.4455 92.2814L60.4715 94.5404L59.0429 95.2462C58.9157 95.309 58.8334 95.4521 58.8334 95.6103Z" fill="#2F2E41"/>
</g>
<g id="Group_4">
<path id="Vector_32" d="M58.5392 92.7671L57.2421 92.7977L56.519 86.9701L58.4333 86.9248L58.5392 92.7671Z" fill="#A0616A"/>
<path id="Vector_33" d="M54.0889 95.4736C54.0889 95.6927 54.2444 95.8704 54.4362 95.8704H57.0109C57.0109 95.8704 57.2643 94.8519 58.2973 94.4136L58.3686 95.8704H59.6968L59.5359 93.5279C59.5359 93.5279 59.8912 92.2747 59.1533 91.6341C58.4154 90.9934 59.0131 91.0826 59.0131 91.0826L58.7228 89.6328L56.7158 89.8688L56.701 92.1447L55.727 94.4037L54.2984 95.1094C54.1712 95.1723 54.0889 95.3154 54.0889 95.4736Z" fill="#2F2E41"/>
</g>
<path id="Vector_34" d="M59.4529 51.6041L58.4739 52.4981L56.1402 55.7759L53.501 73.9953L56.0551 88.4771H58.8978L58.5667 73.3568L60.7377 68.2911L60.563 88.4771H63.8935L67.2801 62.888C67.6464 59.8161 66.9547 56.705 65.2916 54.0964C65.2505 54.032 65.2087 53.967 65.1662 53.9015C65.124 53.8364 65.0809 53.7728 65.0371 53.7108C62.5256 50.1568 59.4529 51.6041 59.4529 51.6041Z" fill="#353274"/>
<path id="Vector_35" d="M65.0373 38.1949L61.2912 37.9395L60.6953 38.9611L57.9709 39.2165L57.6303 45.0059C57.6303 45.0059 56.4384 46.7938 57.2897 48.7519L57.809 51.9148L55.9106 56.3443L64.0243 54.003L65.0373 53.7107L66.3995 49.5182C66.3995 49.5182 68.1022 47.8778 67.2508 45.5053L67.0806 40.3233L65.6332 39.3868L65.0373 38.1949Z" fill="#04A7EC"/>
<path id="Vector_36" d="M62.3469 38.3506C62.3469 38.3506 63.7376 40.9791 59.8328 43.5746L54.0205 48.7947C53.7002 49.0823 53.2616 49.199 52.8408 49.1085C52.3468 49.0023 51.9543 48.6278 51.8249 48.1394L50.0177 41.3166L51.6779 40.6809L53.8552 44.7022L57.9572 39.0186L62.3469 38.3506Z" fill="#04A7EC"/>
<path id="Vector_37" d="M66.1782 60.375C66.1923 60.0088 66.2879 59.6762 66.4356 59.4196L66.3495 55.9229L68.0146 55.9306L67.9227 59.4769C68.0502 59.744 68.12 60.083 68.1059 60.4492C68.0737 61.2857 67.6161 61.9472 67.0838 61.9268C66.5514 61.9063 66.146 61.2115 66.1782 60.375Z" fill="#A0616A"/>
<path id="Vector_38" d="M65.7659 39.9769C65.7659 39.9769 68.4068 39.7748 68.5312 41.1762C68.6014 41.9674 69.0807 49.1654 69.0022 53.5715C68.9417 56.9694 68.0011 58.6239 68.0011 58.6239L66.3015 58.5657L65.7659 39.9769Z" fill="#04A7EC"/>
<path id="Vector_39" d="M60.1461 34.0237L60.247 34.0222C60.3767 33.5993 60.2593 33.9829 60.5519 34.0824L60.9779 33.8011L62.3556 33.7915C62.7025 33.789 63.0411 33.8807 63.3489 34.0406C63.4846 34.1111 63.6093 34.149 63.6887 34.0686L64.161 33.5905C64.161 33.5905 63.4335 40.2257 63.251 40.7042L63.8043 40.6342C63.8043 40.6342 63.9742 39.4302 64.0645 39.4198C64.0884 39.4171 64.1189 39.4847 64.1512 39.5884C64.3085 40.0931 64.5455 41.0682 64.825 40.6194C64.9769 40.3755 65.1494 40.3654 65.3087 40.6658C65.6758 41.3584 66.7616 40.4841 67.2208 39.8487C67.2234 39.8451 67.2259 39.8433 67.2281 39.8437C67.2392 39.8456 67.2509 39.8692 67.2625 39.9063C67.363 40.2276 67.6617 40.4457 67.9971 40.4171C68.0811 40.41 69.0435 41.2522 68.1452 40.4102C67.5973 39.8965 68.2342 39.047 67.5125 37.6681C67.0888 36.8588 67.9461 35.6993 67.9374 34.7479C67.9261 33.5099 67.6568 32.3793 66.9608 31.726C66.2341 31.0439 65.6411 31.0767 64.4911 30.934C62.8489 29.7048 60.9922 30.7299 60.1627 32.7143C59.9769 33.1588 60.2141 33.4757 60.1461 34.0237Z" fill="#2F2E41"/>
</g>
</g>
<defs>
<clipPath id="clip0_554_7425">
<rect width="84.4023" height="96.4305" fill="white"/>
</clipPath>
</defs>
</svg>
