<svg width="125" height="93" viewBox="0 0 125 93" fill="none" xmlns="http://www.w3.org/2000/svg">
<g id="undraw_switches_1js3 1" clip-path="url(#clip0_554_7401)">
<path id="Vector" d="M87.9723 88.3066H0V88.5969H87.9723V88.3066Z" fill="#E6E6E6"/>
<path id="Vector_2" d="M27.277 15.9219H26.4709L23.0451 28.349C23.0451 28.349 22.9779 36.6114 23.784 40.6418C23.784 40.6418 25.1275 38.8953 26.0679 38.8953C27.0083 38.8953 27.8816 30.0956 27.8816 30.0956C27.8816 30.0956 31.5761 17.534 27.277 15.9219Z" fill="#04A7EC"/>
<path id="Vector_3" d="M45.0109 39.7012C45.0109 39.7012 42.8613 45.7468 44.8765 46.1499C46.8917 46.5529 47.9665 41.4477 47.4291 40.776C46.8917 40.1042 45.0109 39.7012 45.0109 39.7012Z" fill="#FEB8B8"/>
<path id="Vector_4" d="M23.5654 38.4524C23.5654 38.4524 24.1696 44.8403 26.1666 44.3547C28.1635 43.8691 26.9821 38.7875 26.2113 38.4055C25.4405 38.0235 23.5654 38.4524 23.5654 38.4524Z" fill="#FEB8B8"/>
<path id="Vector_5" d="M28.7549 75.841C28.7549 75.841 29.6953 80.4088 28.0831 81.6179C26.471 82.827 28.6205 85.3797 28.6205 85.3797L33.7258 80.0057C33.7258 80.0057 31.5762 76.6471 31.7105 74.6318L28.7549 75.841Z" fill="#FEB8B8"/>
<path id="Vector_6" d="M36.8157 80.0059L36.2783 83.6332L36.1439 86.1857L39.0995 85.9171L39.5026 80.6776L36.8157 80.0059Z" fill="#FEB8B8"/>
<path id="Vector_7" d="M25.4408 39.0928C25.4408 39.0928 23.784 39.7016 23.9183 41.4481C24.0527 43.1946 24.4557 48.7029 24.4557 48.7029C24.4557 48.7029 23.2466 60.5255 24.4557 64.5559C25.6649 68.5863 27.9488 76.6472 27.9488 76.6472C27.9488 76.6472 31.4418 77.3189 32.2479 74.7663C32.2479 74.7663 32.1135 66.0337 30.6357 64.1528C29.1579 62.272 30.2327 61.7346 30.367 61.4659C30.5014 61.1972 30.9044 60.7942 30.9044 60.3911C30.9044 59.9881 31.0388 58.5102 31.0388 57.9729C31.0388 57.4355 30.9044 57.5698 31.1731 56.7637C31.4418 55.9576 31.7105 55.6889 31.7105 55.5546C31.7105 55.4202 33.9944 48.2998 33.9944 48.2998L36.9501 64.8246C36.9501 64.8246 36.2783 81.0807 36.547 81.0807C36.8157 81.0807 39.7714 82.1554 40.8461 81.0807C40.8461 81.0807 43.5331 67.1085 42.9957 66.3024C42.4583 65.4963 42.324 65.362 42.4583 64.5559C42.5927 63.7498 42.8613 63.3468 42.5927 62.9437C42.324 62.5407 41.9209 61.1972 42.324 60.7942C42.727 60.3911 42.8614 58.5102 42.8614 58.5102C42.8614 58.5102 45.1453 45.3442 43.6674 43.4633C42.1896 41.5824 25.4408 39.0928 25.4408 39.0928Z" fill="#353274"/>
<path id="Vector_8" d="M29.9639 81.752C29.9639 81.752 28.3517 79.7368 27.8143 80.6772C27.277 81.6176 26.4709 83.0955 26.4709 83.0955C26.4709 83.0955 20.4252 88.335 23.7839 88.4694C27.1426 88.6037 29.2922 86.1854 29.2922 86.1854C29.2922 86.1854 29.8296 83.4985 31.4417 83.4985L31.7104 84.1702L34.6661 82.2894C34.6661 82.2894 34.2498 78.7223 33.0473 78.8265L29.9639 81.752Z" fill="#2F2E41"/>
<path id="Vector_9" d="M35.6066 85.7826C35.6066 85.7826 39.0997 84.4392 39.5027 85.7826C39.9057 87.1261 39.9057 87.7979 39.9057 87.7979C39.9057 87.7979 42.8614 92.6344 39.9057 92.9031C36.9501 93.1718 35.6066 91.2909 35.6066 91.2909C35.6066 91.2909 36.0097 89.007 35.6066 88.7383C35.2036 88.4696 35.6066 85.7826 35.6066 85.7826Z" fill="#2F2E41"/>
<path id="Vector_10" d="M38.0248 11.6231C40.6217 11.6231 42.727 9.51785 42.727 6.92092C42.727 4.32398 40.6217 2.21875 38.0248 2.21875C35.4279 2.21875 33.3226 4.32398 33.3226 6.92092C33.3226 9.51785 35.4279 11.6231 38.0248 11.6231Z" fill="#FEB8B8"/>
<path id="Vector_11" d="M34.5318 7.99512L33.5914 13.2347L40.1744 14.8469C40.1744 14.8469 38.6294 11.0179 40.3088 9.3386C40.7336 8.91375 34.5318 7.99512 34.5318 7.99512Z" fill="#FEB8B8"/>
<path id="Vector_12" d="M33.992 11.0029C33.8334 11.0328 33.6864 11.1068 33.568 11.2165C33.4496 11.3262 33.3645 11.4671 33.3226 11.6229C33.2054 12.0089 33.0237 12.3723 32.7852 12.6977C32.7852 12.6977 26.4709 15.6534 26.4709 16.0564C26.4709 16.4595 29.0235 25.0577 29.0235 25.0577C29.0235 25.0577 29.1579 30.4316 28.0831 31.6407C27.0083 32.8499 25.9335 37.2833 26.2022 37.6864C26.4709 38.0894 24.3213 39.0299 25.1274 39.7016C25.9335 40.3734 37.2187 46.822 43.9361 43.8664C43.9361 43.8664 44.0705 42.6573 43.9361 41.8512C43.8018 41.0451 44.7422 38.3581 44.4735 37.4177C44.2048 36.4773 44.4735 26.8042 44.4735 26.8042L45.858 15.3502C45.8845 15.1326 45.8335 14.9127 45.7139 14.729C45.5943 14.5454 45.4138 14.4097 45.2041 14.3459C43.6557 13.8753 40.0648 11.9485 39.5698 12.3619C38.9289 12.897 34.93 12.5325 33.992 11.0029Z" fill="#04A7EC"/>
<path id="Vector_13" d="M44.6079 14.3097L44.6165 14.3063C44.8086 14.2292 45.0209 14.2183 45.22 14.2753C45.419 14.3323 45.5933 14.4539 45.7155 14.6211C46.548 15.7602 48.3 18.3207 48.504 19.9523C48.7727 22.1018 49.5788 27.8788 49.4444 28.6849C49.3101 29.491 49.1757 29.6253 49.4444 30.0284C49.7131 30.4314 49.5788 30.297 49.4444 30.7001C49.3101 31.1031 47.6979 42.254 47.6979 42.254C47.6979 42.254 46.6231 39.8357 44.6079 40.6418C44.6079 40.6418 44.8766 38.4923 44.6079 37.8205C44.3392 37.1488 44.0705 36.7457 44.3392 36.2083C44.6079 35.671 44.3392 30.4314 44.2049 29.894C44.0705 29.3566 44.2049 26.5353 44.2049 26.5353L42.9957 21.0271L44.6079 14.3097Z" fill="#04A7EC"/>
<path id="Vector_14" d="M37.1466 7.72023L37.3055 6.61305C37.3425 6.35498 37.4935 6.01567 37.7446 6.08585C37.9582 6.14554 38.4234 6.32835 38.5013 6.27317C38.793 6.06652 39.2345 6.42786 39.5413 6.24429C39.6698 6.16738 39.7536 6.0026 39.903 5.9916C40.0032 5.998 40.0976 6.04078 40.1685 6.11191C40.3677 6.28507 40.6023 6.41254 40.856 6.48534C40.9832 6.52 41.1174 6.51998 41.2447 6.4853C41.3719 6.45061 41.4876 6.38252 41.5797 6.28809C41.6122 6.23778 41.656 6.19578 41.7076 6.16542C41.7682 6.14795 41.8329 6.15092 41.8917 6.17388L42.6754 6.38728C42.7907 5.96932 42.8144 5.5314 42.7449 5.10345C42.6753 4.6755 42.5142 4.26761 42.2725 3.90766C41.9545 3.47606 41.5691 3.09855 41.1309 2.78965C40.6455 2.42039 40.1446 2.07307 39.6281 1.74769C39.0629 1.39061 38.4634 1.05377 37.8024 0.953389C37.1414 0.853021 36.4014 1.03259 35.9856 1.55614C35.7901 1.41461 35.6431 1.21605 35.5648 0.987682C35.5182 1.0301 35.4815 1.08222 35.4572 1.14039C35.4329 1.19855 35.4217 1.26133 35.4244 1.3243C35.427 1.38727 35.4435 1.44888 35.4725 1.5048C35.5016 1.56072 35.5426 1.60958 35.5926 1.64793L34.9297 1.22463C34.7434 1.42028 35.1075 1.77507 34.9487 1.99371C34.9007 2.04778 34.8391 2.08801 34.7702 2.11022C34.4103 2.25051 34.0804 2.45813 33.7983 2.72198C33.4173 3.10402 33.2104 3.62259 33.0328 4.13207C32.6378 5.26528 32.3507 6.56486 32.9119 7.62562C32.9756 7.74588 33.8154 9.73077 33.9273 9.80818C34.3055 10.0698 34.0593 9.43661 34.3303 9.80818C34.5429 10.0995 34.5031 8.98437 34.8189 9.22915C34.9428 9.31776 35.0896 9.36856 35.2417 9.3754C35.3939 9.38224 35.5447 9.34483 35.676 9.2677C35.8069 9.17688 35.7647 8.67258 35.6941 8.20947C35.6806 8.12125 35.6889 8.03107 35.7183 7.94683C35.7478 7.86259 35.7974 7.78685 35.863 7.72626C35.9285 7.66568 36.0079 7.62209 36.0941 7.59931C36.1804 7.57654 36.271 7.57528 36.3579 7.59564C36.7512 7.68816 37.1399 7.76724 37.1466 7.72023Z" fill="#2F2E41"/>
<path id="Vector_15" opacity="0.1" d="M43.6209 18.4219L44.8094 31.8417C44.8094 31.8417 42.298 20.5864 43.6209 18.4219Z" fill="black"/>
<path id="Vector_16" d="M21.5432 64.8809C19.62 67.5994 19.112 83.072 18.9988 88.0316C18.9959 88.1434 18.993 88.2494 18.9915 88.3495H14.1233C14.0638 88.2435 14.0087 88.139 13.9564 88.0316C11.0709 82.3361 12.6719 75.507 12.756 75.1615C12.5369 76.2472 13.5282 79.394 14.6487 82.4421C15.3324 73.07 21.1774 65.354 21.5432 64.8809Z" fill="#E6E6E6"/>
<path id="Vector_17" d="M108.158 25.7938C109.975 25.7938 111.448 24.3208 111.448 22.5038C111.448 20.6868 109.975 19.2139 108.158 19.2139C106.341 19.2139 104.868 20.6868 104.868 22.5038C104.868 24.3208 106.341 25.7938 108.158 25.7938Z" fill="#04A7EC"/>
<path id="Vector_18" d="M108.816 27.4393H94.0113C92.7025 27.4393 91.4473 26.9193 90.5218 25.9938C89.5963 25.0684 89.0764 23.8131 89.0764 22.5043C89.0764 21.1955 89.5963 19.9402 90.5218 19.0148C91.4473 18.0893 92.7025 17.5693 94.0113 17.5693H108.816C110.125 17.5693 111.38 18.0893 112.306 19.0148C113.231 19.9402 113.751 21.1955 113.751 22.5043C113.751 23.8131 113.231 25.0684 112.306 25.9938C111.38 26.9193 110.125 27.4393 108.816 27.4393ZM94.0113 18.2273C92.877 18.2273 91.7891 18.6779 90.987 19.48C90.185 20.2821 89.7343 21.37 89.7343 22.5043C89.7343 23.6386 90.185 24.7265 90.987 25.5286C91.7891 26.3307 92.877 26.7813 94.0113 26.7813H108.816C109.951 26.7813 111.038 26.3307 111.84 25.5286C112.643 24.7265 113.093 23.6386 113.093 22.5043C113.093 21.37 112.643 20.2821 111.84 19.48C111.038 18.6779 109.951 18.2273 108.816 18.2273H94.0113Z" fill="#04A7EC"/>
<path id="Vector_19" d="M94.5445 43.9061C96.3615 43.9061 97.8345 42.4331 97.8345 40.6161C97.8345 38.7991 96.3615 37.3262 94.5445 37.3262C92.7275 37.3262 91.2546 38.7991 91.2546 40.6161C91.2546 42.4331 92.7275 43.9061 94.5445 43.9061Z" fill="#E6E6E6"/>
<path id="Vector_20" d="M108.816 45.5496H94.0113C92.7025 45.5496 91.4473 45.0297 90.5218 44.1042C89.5963 43.1787 89.0764 41.9235 89.0764 40.6146C89.0764 39.3058 89.5963 38.0506 90.5218 37.1251C91.4473 36.1996 92.7025 35.6797 94.0113 35.6797H108.816C110.125 35.6797 111.38 36.1996 112.306 37.1251C113.231 38.0506 113.751 39.3058 113.751 40.6146C113.751 41.9235 113.231 43.1787 112.306 44.1042C111.38 45.0297 110.125 45.5496 108.816 45.5496ZM94.0113 36.3377C92.877 36.3377 91.7891 36.7883 90.987 37.5904C90.185 38.3925 89.7343 39.4803 89.7343 40.6146C89.7343 41.749 90.185 42.8368 90.987 43.6389C91.7891 44.441 92.877 44.8916 94.0113 44.8916H108.816C109.951 44.8916 111.038 44.441 111.84 43.6389C112.643 42.8368 113.093 41.749 113.093 40.6146C113.093 39.4803 112.643 38.3925 111.84 37.5904C111.038 36.7883 109.951 36.3377 108.816 36.3377H94.0113Z" fill="#E6E6E6"/>
<path id="Vector_21" d="M94.5445 62.0165C96.3615 62.0165 97.8345 60.5435 97.8345 58.7265C97.8345 56.9095 96.3615 55.4365 94.5445 55.4365C92.7275 55.4365 91.2546 56.9095 91.2546 58.7265C91.2546 60.5435 92.7275 62.0165 94.5445 62.0165Z" fill="#E6E6E6"/>
<path id="Vector_22" d="M108.816 63.6619H94.0113C92.7025 63.6619 91.4473 63.142 90.5218 62.2165C89.5963 61.291 89.0764 60.0358 89.0764 58.727C89.0764 57.4181 89.5963 56.1629 90.5218 55.2374C91.4473 54.3119 92.7025 53.792 94.0113 53.792H108.816C110.125 53.792 111.38 54.3119 112.306 55.2374C113.231 56.1629 113.751 57.4181 113.751 58.727C113.751 60.0358 113.231 61.291 112.306 62.2165C111.38 63.142 110.125 63.6619 108.816 63.6619ZM94.0113 54.45C92.877 54.45 91.7891 54.9006 90.987 55.7027C90.185 56.5048 89.7343 57.5926 89.7343 58.727C89.7343 59.8613 90.185 60.9491 90.987 61.7512C91.7891 62.5533 92.877 63.0039 94.0113 63.0039H108.816C109.378 63.0039 109.934 62.8933 110.453 62.6784C110.972 62.4634 111.443 62.1484 111.84 61.7512C112.238 61.3541 112.553 60.8826 112.768 60.3637C112.983 59.8448 113.093 59.2886 113.093 58.727C113.093 58.1653 112.983 57.6091 112.768 57.0902C112.553 56.5713 112.238 56.0998 111.84 55.7027C111.443 55.3055 110.972 54.9905 110.453 54.7755C109.934 54.5606 109.378 54.45 108.816 54.45H94.0113Z" fill="#E6E6E6"/>
<path id="Vector_23" d="M124.274 77.6254H78.5532C78.3608 77.6251 78.1764 77.5486 78.0403 77.4126C77.9043 77.2765 77.8277 77.092 77.8275 76.8996V4.33022C77.8277 4.13782 77.9043 3.95335 78.0403 3.8173C78.1764 3.68125 78.3608 3.60472 78.5532 3.60449H124.274C124.467 3.60472 124.651 3.68125 124.787 3.8173C124.923 3.95335 125 4.13782 125 4.33022V76.8996C125 77.092 124.923 77.2765 124.787 77.4126C124.651 77.5486 124.467 77.6251 124.274 77.6254ZM78.5532 3.89478C78.4378 3.89491 78.3271 3.94083 78.2455 4.02246C78.1638 4.10409 78.1179 4.21478 78.1178 4.33022V76.8996C78.1179 77.0151 78.1638 77.1258 78.2455 77.2074C78.3271 77.289 78.4378 77.335 78.5532 77.3351H124.274C124.39 77.335 124.5 77.289 124.582 77.2074C124.664 77.1258 124.71 77.0151 124.71 76.8996V4.33022C124.71 4.21478 124.664 4.10409 124.582 4.02246C124.5 3.94083 124.39 3.89491 124.274 3.89478H78.5532Z" fill="#E6E6E6"/>
</g>
<defs>
<clipPath id="clip0_554_7401">
<rect width="125" height="92.0017" fill="white" transform="translate(0 0.926758)"/>
</clipPath>
</defs>
</svg>
