<svg width="20" height="20" viewBox="0 0 20 20" fill="none" xmlns="http://www.w3.org/2000/svg">
<g id="vuesax/twotone/whatsapp">
<g id="whatsapp">
<path id="Vector" d="M5.78333 17.192C7.01667 17.917 8.45833 18.3337 10 18.3337C14.6 18.3337 18.3333 14.6003 18.3333 10.0003C18.3333 5.40033 14.6 1.66699 10 1.66699C5.4 1.66699 1.66666 5.40033 1.66666 10.0003C1.66666 11.517 2.07502 12.942 2.78335 14.167L1.66666 18.3337L5.78333 17.192Z" stroke="#01001A" stroke-width="1.25" stroke-miterlimit="10" stroke-linecap="round" stroke-linejoin="round"/>
<path id="Vector_2" opacity="0.4" d="M14.1667 12.6414C14.1667 12.7914 14.1333 12.9497 14.0583 13.0997C13.9833 13.2497 13.8917 13.3914 13.775 13.5247C13.5667 13.7497 13.3417 13.9164 13.0917 14.0164C12.8417 14.1247 12.5667 14.1747 12.275 14.1747C11.85 14.1747 11.3916 14.0747 10.9166 13.8664C10.4333 13.6581 9.95834 13.3831 9.48334 13.0414C9.00001 12.6914 8.54999 12.2997 8.11666 11.8747C7.68333 11.4414 7.30002 10.9831 6.95002 10.5081C6.60836 10.0331 6.33332 9.55806 6.13332 9.08306C5.93332 8.60806 5.83334 8.14974 5.83334 7.71641C5.83334 7.43307 5.88333 7.15807 5.98333 6.90807C6.08333 6.64974 6.24168 6.41641 6.46668 6.20807C6.73334 5.94141 7.02499 5.81641 7.33333 5.81641C7.44999 5.81641 7.56669 5.8414 7.67502 5.8914C7.78335 5.9414 7.88333 6.0164 7.95833 6.12474L8.92502 7.49139C9.00002 7.59972 9.05831 7.69139 9.09165 7.78306C9.13331 7.87473 9.14999 7.95806 9.14999 8.04139C9.14999 8.14139 9.11667 8.24141 9.05833 8.34141C9 8.44141 8.92502 8.54139 8.82502 8.64139L8.50835 8.97472C8.45835 9.02472 8.44167 9.07473 8.44167 9.1414C8.44167 9.17473 8.45002 9.20806 8.45836 9.24139C8.47502 9.27473 8.48334 9.29973 8.49167 9.32473C8.56667 9.4664 8.69998 9.64139 8.88331 9.85805C9.07498 10.0747 9.27501 10.2997 9.49168 10.5164C9.71668 10.7414 9.93334 10.9414 10.1583 11.1331C10.375 11.3164 10.5584 11.4414 10.7 11.5164C10.725 11.5247 10.75 11.5414 10.775 11.5497C10.8083 11.5664 10.8417 11.5664 10.8833 11.5664C10.9583 11.5664 11.0084 11.5414 11.0584 11.4914L11.375 11.1747C11.4834 11.0664 11.5833 10.9914 11.675 10.9414C11.775 10.8831 11.8667 10.8497 11.975 10.8497C12.0583 10.8497 12.1417 10.8664 12.2333 10.9081C12.325 10.9497 12.425 10.9997 12.525 11.0747L13.9083 12.0581C14.0167 12.1331 14.0916 12.2247 14.1416 12.3247C14.1416 12.4247 14.1667 12.5247 14.1667 12.6414Z" fill="#01001A"/>
</g>
</g>
</svg>
